<mxfile host="app.diagrams.net" agent="Mozilla/5.0 (X11; Linux x86_64; rv:143.0) Gecko/20100101 Firefox/143.0" version="28.2.3">
  <diagram id="prtHgNgQTEPvFCAcTncT" name="Page-1">
    <mxGraphModel dx="1773" dy="548" grid="1" gridSize="10" guides="1" tooltips="1" connect="1" arrows="1" fold="1" page="1" pageScale="1" pageWidth="827" pageHeight="1169" math="0" shadow="0">
      <root>
        <mxCell id="0" />
        <mxCell id="1" parent="0" />
        <mxCell id="iK-NEFrNJ9JzUZttqXqQ-23" value="&lt;font color=&quot;#0072b2&quot;&gt;Community A&lt;br&gt;&lt;/font&gt;" style="points=[[0,0],[0.25,0],[0.5,0],[0.75,0],[1,0],[1,0.25],[1,0.5],[1,0.75],[1,1],[0.75,1],[0.5,1],[0.25,1],[0,1],[0,0.75],[0,0.5],[0,0.25]];outlineConnect=0;gradientColor=none;html=1;whiteSpace=wrap;fontSize=16;fontStyle=1;container=1;pointerEvents=0;collapsible=0;recursiveResize=0;shape=mxgraph.aws4.group;grIcon=mxgraph.aws4.group_region;strokeColor=#0072B2;fillColor=none;verticalAlign=top;align=left;spacingLeft=30;fontColor=#165A97;dashed=1;fontFamily=PT Sans;fontSource=https%3A%2F%2Ffonts.googleapis.com%2Fcss%3Ffamily%3DPT%2BSans;strokeWidth=2;perimeterSpacing=0;" parent="1" vertex="1">
          <mxGeometry x="-70" y="334.78" width="450" height="315.22" as="geometry" />
        </mxCell>
        <mxCell id="dOe_rNZvm3Vo3-S5fdjW-30" value="Group 1" style="fillColor=none;strokeColor=#5A6C86;dashed=1;verticalAlign=top;fontStyle=1;fontColor=#5A6C86;whiteSpace=wrap;html=1;fontSize=16;align=left;spacingLeft=8;" vertex="1" parent="iK-NEFrNJ9JzUZttqXqQ-23">
          <mxGeometry x="10" y="36.61" width="260" height="263.39" as="geometry" />
        </mxCell>
        <mxCell id="dOe_rNZvm3Vo3-S5fdjW-28" value="" style="sketch=0;outlineConnect=0;fontColor=#232F3E;gradientColor=none;fillColor=#232F3D;strokeColor=none;dashed=0;verticalLabelPosition=bottom;verticalAlign=top;align=center;html=1;fontSize=12;fontStyle=0;aspect=fixed;pointerEvents=1;shape=mxgraph.aws4.user;" vertex="1" parent="iK-NEFrNJ9JzUZttqXqQ-23">
          <mxGeometry x="20" y="75.22000000000003" width="78" height="78" as="geometry" />
        </mxCell>
        <mxCell id="dOe_rNZvm3Vo3-S5fdjW-31" value="" style="sketch=0;outlineConnect=0;fontColor=#232F3E;gradientColor=none;fillColor=#232F3D;strokeColor=none;dashed=0;verticalLabelPosition=bottom;verticalAlign=top;align=center;html=1;fontSize=12;fontStyle=0;aspect=fixed;pointerEvents=1;shape=mxgraph.aws4.user;" vertex="1" parent="iK-NEFrNJ9JzUZttqXqQ-23">
          <mxGeometry x="60" y="185.22000000000003" width="78" height="78" as="geometry" />
        </mxCell>
        <mxCell id="dOe_rNZvm3Vo3-S5fdjW-32" value="Group 2" style="fillColor=none;strokeColor=#5A6C86;dashed=1;verticalAlign=top;fontStyle=1;fontColor=light-dark(#5A6C86,#9999FF);whiteSpace=wrap;html=1;fontSize=16;align=right;spacingRight=8;" vertex="1" parent="iK-NEFrNJ9JzUZttqXqQ-23">
          <mxGeometry x="180" y="21.61" width="260" height="263.39" as="geometry" />
        </mxCell>
        <mxCell id="dOe_rNZvm3Vo3-S5fdjW-33" value="" style="sketch=0;outlineConnect=0;fontColor=#232F3E;gradientColor=none;fillColor=#232F3D;strokeColor=none;dashed=0;verticalLabelPosition=bottom;verticalAlign=top;align=center;html=1;fontSize=12;fontStyle=0;aspect=fixed;pointerEvents=1;shape=mxgraph.aws4.user;" vertex="1" parent="iK-NEFrNJ9JzUZttqXqQ-23">
          <mxGeometry x="186" y="114.31000000000003" width="78" height="78" as="geometry" />
        </mxCell>
        <mxCell id="dOe_rNZvm3Vo3-S5fdjW-34" value="" style="sketch=0;outlineConnect=0;fontColor=#232F3E;gradientColor=none;fillColor=#232F3D;strokeColor=none;dashed=0;verticalLabelPosition=bottom;verticalAlign=top;align=center;html=1;fontSize=12;fontStyle=0;aspect=fixed;pointerEvents=1;shape=mxgraph.aws4.user;" vertex="1" parent="iK-NEFrNJ9JzUZttqXqQ-23">
          <mxGeometry x="290" y="65.22000000000003" width="78" height="78" as="geometry" />
        </mxCell>
        <mxCell id="dOe_rNZvm3Vo3-S5fdjW-35" value="" style="sketch=0;outlineConnect=0;fontColor=#232F3E;gradientColor=none;fillColor=#232F3D;strokeColor=none;dashed=0;verticalLabelPosition=bottom;verticalAlign=top;align=center;html=1;fontSize=12;fontStyle=0;aspect=fixed;pointerEvents=1;shape=mxgraph.aws4.user;" vertex="1" parent="iK-NEFrNJ9JzUZttqXqQ-23">
          <mxGeometry x="340" y="172.22000000000003" width="78" height="78" as="geometry" />
        </mxCell>
      </root>
    </mxGraphModel>
  </diagram>
</mxfile>
